# xmcd
#
# Track frame offsets: 
#        150
#        13578
#        29968
#        48616
#        62693
#        75341
#        87393
#        102458
#
# Disc length: 1515 seconds
#
# Revision: 0
# Processed by: cddbd v1.5.1PL0 Copyright (c) Steve Scherf et al.
# Submitted via: ExactAudioCopy v0.95a5
#
DISCID=6505e908
DTITLE=John Dee Graham - First Bear On The Moon
DYEAR=2005
DGENRE=Acoustic
TTITLE0=I don't feel that way
TTITLE1=majesty of love
TTITLE2=something to look forward to
TTITLE3=world so full
TTITLE4=big sweet life
TTITLE5=best
TTITLE6=jesus on the freeway
TTITLE7=betrayed
EXTD=
EXTT0=
EXTT1=
EXTT2=
EXTT3=
EXTT4=
EXTT5=
EXTT6=
EXTT7=
PLAYORDER=
